<?xml version="1.0" encoding="UTF-8" standalone="no"?>
<!-- Created with Inkscape (http://www.inkscape.org/) -->

<svg
   xmlns:dc="http://purl.org/dc/elements/1.1/"
   xmlns:cc="http://creativecommons.org/ns#"
   xmlns:rdf="http://www.w3.org/1999/02/22-rdf-syntax-ns#"
   xmlns:svg="http://www.w3.org/2000/svg"
   xmlns="http://www.w3.org/2000/svg"
   version="1.1"
   width="400"
   height="63"
   id="svg4453">
  <defs
     id="defs4455" />
  <metadata
     id="metadata4458">
    <rdf:RDF>
      <cc:Work
         rdf:about="">
        <dc:format>image/svg+xml</dc:format>
        <dc:type
           rdf:resource="http://purl.org/dc/dcmitype/StillImage" />
        <dc:title></dc:title>
      </cc:Work>
    </rdf:RDF>
  </metadata>
  <g
     transform="translate(-123.20443,-508.86387)"
     id="layer1">
    <g
       transform="matrix(0.99286892,0,0,-0.99286892,436.6479,523.83095)"
       id="g310">
      <path
         d="m 0,0 c -1.237,0 -2.233,-0.996 -2.233,-2.233 l 0,-8.934 -8.934,0 c -1.237,0 -2.233,-0.996 -2.233,-2.233 l 0,-6.7 c 0,-1.237 0.996,-2.233 2.233,-2.233 l 8.934,0 0,-8.934 c 0,-1.237 0.996,-2.233 2.233,-2.233 l 6.699,0 c 1.239,0 2.234,0.996 2.234,2.233 l 0,8.934 8.933,0 c 1.238,0 2.234,0.996 2.234,2.233 l 0,6.7 c 0,1.237 -0.996,2.233 -2.234,2.233 l -8.933,0 0,8.934 C 8.933,-0.996 7.938,0 6.699,0 L 0,0 z"
         id="path312"
         style="fill:#ec1c24;fill-opacity:1;fill-rule:nonzero;stroke:none" />
    </g>
    <g
       transform="matrix(0.99286892,0,0,-0.99286892,126.11552,546.68243)"
       id="g314">
      <path
         d="m 0,0 c 0.638,-0.5 1.341,-1.011 2.113,-1.532 0.773,-0.526 1.625,-1 2.558,-1.434 0.931,-0.43 1.942,-0.784 3.033,-1.057 1.09,-0.271 2.274,-0.408 3.545,-0.408 0.954,0 1.887,0.112 2.795,0.341 0.909,0.227 1.715,0.577 2.422,1.057 0.704,0.477 1.283,1.101 1.738,1.875 0.454,0.771 0.681,1.727 0.681,2.865 0,1.179 -0.249,2.179 -0.749,2.997 -0.502,0.817 -1.159,1.511 -1.977,2.08 -0.817,0.569 -1.763,1.058 -2.83,1.465 -1.069,0.41 -2.193,0.82 -3.375,1.228 -1.454,0.501 -2.922,1.044 -4.397,1.637 -1.478,0.588 -2.808,1.362 -3.989,2.319 -1.182,0.952 -2.148,2.169 -2.898,3.646 -0.748,1.478 -1.125,3.35 -1.125,5.624 0,2.185 0.431,4.113 1.296,5.795 0.863,1.682 2.047,3.079 3.546,4.193 1.5,1.115 3.226,1.955 5.18,2.522 1.954,0.567 4.024,0.853 6.205,0.853 1.499,0 2.898,-0.115 4.194,-0.339 1.295,-0.23 2.453,-0.5 3.476,-0.821 1.022,-0.317 1.886,-0.644 2.591,-0.987 0.703,-0.341 1.238,-0.648 1.602,-0.921 1.272,-0.771 1.909,-1.795 1.909,-3.066 0,-0.547 -0.238,-1.285 -0.717,-2.218 -0.476,-0.931 -1.147,-1.852 -2.012,-2.762 -1.133,0.91 -2.613,1.775 -4.429,2.592 -1.819,0.817 -3.728,1.227 -5.728,1.227 -0.817,0 -1.659,-0.08 -2.522,-0.24 C 11.272,28.372 10.488,28.101 9.784,27.714 9.077,27.327 8.5,26.804 8.045,26.146 7.59,25.488 7.362,24.635 7.362,23.591 c 0,-0.957 0.228,-1.787 0.683,-2.488 0.455,-0.707 1.067,-1.319 1.841,-1.842 0.772,-0.524 1.67,-0.99 2.693,-1.398 1.024,-0.41 2.079,-0.817 3.17,-1.227 1.454,-0.547 2.932,-1.124 4.432,-1.739 1.499,-0.613 2.863,-1.42 4.09,-2.421 1.228,-0.997 2.226,-2.239 3,-3.716 0.774,-1.478 1.161,-3.329 1.161,-5.555 0,-2.411 -0.422,-4.533 -1.263,-6.374 -0.842,-1.842 -2.012,-3.399 -3.511,-4.671 -1.501,-1.271 -3.307,-2.227 -5.421,-2.865 -2.113,-0.634 -4.42,-0.954 -6.92,-0.954 -3.227,0 -5.863,0.33 -7.908,0.988 -2.045,0.66 -3.522,1.264 -4.431,1.811 -0.545,0.36 -1.002,0.791 -1.363,1.294 -0.365,0.498 -0.547,1.067 -0.547,1.702 0,0.773 0.307,1.705 0.921,2.798 C -1.397,-1.978 -0.727,-0.954 0,0"
         id="path316"
         style="fill:#3366b7;fill-opacity:1;fill-rule:nonzero;stroke:none" />
    </g>
    <g
       transform="matrix(0.99286892,0,0,-0.99286892,181.0801,538.42235)"
       id="g318">
      <path
         d="m 0,0 c 0,0.998 -0.034,1.929 -0.103,2.795 -0.068,0.861 -0.25,1.601 -0.544,2.216 -0.297,0.613 -0.774,1.091 -1.432,1.43 -0.658,0.341 -1.58,0.511 -2.762,0.511 -1.681,0 -3.125,-0.35 -4.328,-1.057 -1.206,-0.705 -1.807,-1.579 -1.807,-2.623 l 0,-22.092 -9.273,0 0,48.066 c 0,0.046 0.342,0.103 1.023,0.17 0.682,0.069 1.385,0.105 2.114,0.105 0.726,0 1.453,-0.069 2.181,-0.206 0.727,-0.136 1.387,-0.399 1.978,-0.784 0.59,-0.389 1.067,-0.93 1.431,-1.637 0.363,-0.705 0.546,-1.624 0.546,-2.762 l 0,-13.567 c 0.364,0.41 0.818,0.84 1.365,1.297 0.544,0.454 1.203,0.874 1.975,1.261 0.774,0.387 1.671,0.693 2.692,0.921 1.024,0.227 2.193,0.34 3.512,0.34 3.227,0 5.615,-0.637 7.16,-1.908 C 7.271,11.202 8.272,9.521 8.727,7.43 8.953,6.385 9.103,5.248 9.17,4.021 9.239,2.795 9.273,1.588 9.273,0.407 l 0,-19.227 L 0,-18.82 0,0 z"
         id="path320"
         style="fill:#3366b7;fill-opacity:1;fill-rule:nonzero;stroke:none" />
    </g>
    <g
       transform="matrix(0.99286892,0,0,-0.99286892,216.61783,541.40007)"
       id="g322">
      <path
         d="m 0,0 -0.955,0 c -0.318,0 -0.636,-0.026 -0.953,-0.07 -1.137,-0.093 -2.263,-0.24 -3.377,-0.444 -1.114,-0.204 -2.102,-0.523 -2.966,-0.954 -0.863,-0.43 -1.567,-1.013 -2.113,-1.74 -0.544,-0.725 -0.819,-1.658 -0.819,-2.793 0,-1.274 0.366,-2.353 1.094,-3.239 0.726,-0.885 1.95,-1.328 3.68,-1.328 0.862,0 1.681,0.111 2.455,0.338 0.773,0.229 1.454,0.523 2.046,0.886 0.588,0.365 1.056,0.764 1.397,1.195 C -0.17,-7.719 0,-7.321 0,-6.958 L 0,0 z m 0.681,-12.683 c -0.999,-1.046 -2.295,-1.978 -3.886,-2.796 -1.59,-0.817 -3.682,-1.227 -6.272,-1.227 -1.228,0 -2.455,0.171 -3.681,0.511 -1.228,0.342 -2.341,0.897 -3.341,1.671 -0.999,0.773 -1.817,1.807 -2.453,3.102 -0.639,1.297 -0.956,2.875 -0.956,4.74 0,2.316 0.555,4.201 1.671,5.658 1.112,1.455 2.51,2.599 4.192,3.443 1.682,0.84 3.501,1.421 5.454,1.737 1.955,0.318 3.751,0.522 5.386,0.615 0.545,0.043 1.079,0.066 1.602,0.066 l 1.466,0 0,1.228 c 0,1.728 -0.467,2.956 -1.397,3.682 -0.932,0.728 -2.445,1.091 -4.533,1.091 -1.955,0 -3.695,-0.319 -5.215,-0.954 -1.523,-0.64 -3.013,-1.364 -4.468,-2.184 -0.636,0.774 -1.147,1.624 -1.532,2.558 -0.388,0.93 -0.581,1.625 -0.581,2.081 0,0.591 0.352,1.191 1.057,1.806 0.704,0.613 1.67,1.16 2.898,1.637 1.225,0.477 2.636,0.862 4.225,1.157 1.592,0.297 3.274,0.444 5.048,0.444 2.452,0 4.532,-0.25 6.237,-0.747 1.705,-0.503 3.09,-1.275 4.16,-2.322 C 6.829,13.271 7.591,11.963 8.044,10.395 8.5,8.827 8.726,6.996 8.726,4.907 l 0,-10.501 c 0.045,-1.818 0.286,-3.148 0.716,-3.987 0.431,-0.84 1.307,-1.263 2.627,-1.263 0.226,0 0.464,0.013 0.714,0.036 0.249,0.021 0.512,0.057 0.784,0.1 l 0.409,-4.566 c -0.909,-0.364 -1.83,-0.659 -2.76,-0.887 -0.932,-0.225 -2.034,-0.341 -3.308,-0.341 -1.955,0 -3.489,0.354 -4.601,1.058 -1.114,0.703 -1.991,1.624 -2.626,2.761"
         id="path324"
         style="fill:#3366b7;fill-opacity:1;fill-rule:nonzero;stroke:none" />
    </g>
    <g
       transform="matrix(0.99286892,0,0,-0.99286892,242.7456,528.27067)"
       id="g326">
      <path
         d="m 0,0 c 0.273,0.41 0.639,0.864 1.092,1.364 0.453,0.5 1.01,0.954 1.672,1.365 0.657,0.407 1.382,0.75 2.179,1.021 0.795,0.273 1.647,0.409 2.557,0.409 0.547,0 1.125,-0.046 1.738,-0.136 0.615,-0.09 1.183,-0.26 1.705,-0.51 0.524,-0.253 0.944,-0.594 1.261,-1.025 0.32,-0.43 0.479,-0.964 0.479,-1.601 0,-1 -0.25,-2.148 -0.75,-3.443 -0.502,-1.297 -1.001,-2.398 -1.5,-3.305 -0.774,0.633 -1.546,1.124 -2.32,1.465 -0.772,0.339 -1.68,0.509 -2.726,0.509 -1.41,0 -2.59,-0.407 -3.545,-1.224 C 0.889,-5.929 0.411,-6.908 0.411,-8.043 l 0,-21.002 -9.273,0 0,32.25 c 0.225,0.044 0.501,0.091 0.817,0.135 0.275,0.046 0.591,0.08 0.956,0.105 0.362,0.021 0.794,0.034 1.294,0.034 1.454,0 2.717,-0.284 3.785,-0.854 C -0.942,2.058 -0.271,1.181 0,0"
         id="path328"
         style="fill:#3366b7;fill-opacity:1;fill-rule:nonzero;stroke:none" />
    </g>
    <g
       transform="matrix(0.99286892,0,0,-0.99286892,280.7199,540.5885)"
       id="g330">
      <path
         d="M 0,0 C 0,1.364 -0.112,2.633 -0.34,3.816 -0.567,5 -0.942,6.021 -1.466,6.883 c -0.52,0.863 -1.226,1.534 -2.113,2.013 -0.885,0.478 -1.965,0.715 -3.237,0.715 -1.909,0 -3.24,-0.364 -3.989,-1.091 -0.752,-0.727 -1.124,-1.522 -1.124,-2.385 l 0,-14.454 c 0.363,-0.364 1.009,-0.794 1.942,-1.295 0.932,-0.5 2.009,-0.75 3.239,-0.75 2.318,0 4.022,0.91 5.112,2.728 C -0.543,-5.818 0,-3.272 0,0 m -12.339,12.612 c 0.727,0.862 1.863,1.739 3.409,2.623 1.544,0.887 3.499,1.33 5.863,1.33 1.681,0 3.283,-0.283 4.806,-0.853 C 3.263,15.145 4.614,14.225 5.796,12.953 6.978,11.682 7.92,9.998 8.625,7.906 9.329,5.817 9.684,3.249 9.684,0.203 c 0,-3.546 -0.411,-6.467 -1.228,-8.76 -0.817,-2.295 -1.875,-4.116 -3.171,-5.454 -1.296,-1.343 -2.739,-2.285 -4.328,-2.832 -1.594,-0.544 -3.184,-0.817 -4.773,-0.817 -1.32,0 -2.465,0.147 -3.445,0.444 -0.976,0.296 -1.804,0.624 -2.486,0.987 -0.683,0.364 -1.207,0.728 -1.568,1.094 -0.367,0.361 -0.592,0.614 -0.682,0.747 l 0,-17.112 -9.204,0 0,47.111 c 0.225,0.044 0.499,0.091 0.817,0.135 0.273,0.046 0.591,0.08 0.955,0.106 0.364,0.02 0.795,0.033 1.295,0.033 1.5,0 2.773,-0.252 3.819,-0.75 1.044,-0.5 1.704,-1.341 1.976,-2.523"
         id="path332"
         style="fill:#3366b7;fill-opacity:1;fill-rule:nonzero;stroke:none" />
    </g>
    <g
       transform="matrix(0.99286892,0,0,-0.99286892,297.84689,546.68243)"
       id="g334">
      <path
         d="m 0,0 c 0.636,-0.5 1.34,-1.011 2.113,-1.532 0.773,-0.526 1.623,-1 2.557,-1.434 0.931,-0.43 1.942,-0.784 3.034,-1.057 1.09,-0.271 2.272,-0.408 3.546,-0.408 0.952,0 1.884,0.112 2.794,0.341 0.909,0.227 1.715,0.577 2.42,1.057 0.705,0.477 1.283,1.101 1.738,1.875 0.454,0.771 0.682,1.727 0.682,2.865 0,1.179 -0.25,2.179 -0.75,2.997 -0.5,0.817 -1.159,1.511 -1.978,2.08 -0.817,0.569 -1.76,1.058 -2.827,1.465 -1.069,0.41 -2.195,0.82 -3.375,1.228 -1.456,0.501 -2.921,1.044 -4.398,1.637 -1.478,0.588 -2.809,1.362 -3.989,2.319 -1.18,0.952 -2.149,2.169 -2.896,3.646 -0.752,1.478 -1.126,3.35 -1.126,5.624 0,2.185 0.431,4.113 1.297,5.795 0.862,1.682 2.044,3.079 3.543,4.193 1.5,1.115 3.227,1.955 5.182,2.522 1.954,0.567 4.022,0.853 6.204,0.853 1.5,0 2.897,-0.115 4.193,-0.339 1.296,-0.23 2.453,-0.5 3.477,-0.821 1.023,-0.317 1.885,-0.644 2.59,-0.987 0.704,-0.341 1.24,-0.648 1.603,-0.921 1.271,-0.771 1.909,-1.795 1.909,-3.066 0,-0.547 -0.237,-1.285 -0.716,-2.218 -0.477,-0.931 -1.149,-1.852 -2.013,-2.762 -1.134,0.91 -2.611,1.775 -4.43,2.592 -1.819,0.817 -3.727,1.227 -5.727,1.227 -0.817,0 -1.659,-0.08 -2.521,-0.24 -0.865,-0.159 -1.649,-0.43 -2.352,-0.817 -0.706,-0.387 -1.286,-0.91 -1.74,-1.568 -0.453,-0.658 -0.682,-1.511 -0.682,-2.555 0,-0.957 0.229,-1.787 0.682,-2.488 0.454,-0.707 1.068,-1.319 1.842,-1.842 0.772,-0.524 1.67,-0.99 2.692,-1.398 1.023,-0.41 2.079,-0.817 3.17,-1.227 1.455,-0.547 2.932,-1.124 4.432,-1.739 1.5,-0.613 2.864,-1.42 4.091,-2.421 1.225,-0.997 2.226,-2.239 3,-3.716 0.772,-1.478 1.158,-3.329 1.158,-5.555 0,-2.411 -0.421,-4.533 -1.26,-6.374 -0.842,-1.842 -2.013,-3.399 -3.513,-4.671 -1.498,-1.271 -3.305,-2.227 -5.419,-2.865 -2.115,-0.634 -4.422,-0.954 -6.921,-0.954 -3.228,0 -5.862,0.33 -7.907,0.988 -2.047,0.66 -3.524,1.264 -4.431,1.811 -0.547,0.36 -1.002,0.791 -1.365,1.294 -0.365,0.498 -0.546,1.067 -0.546,1.702 0,0.773 0.306,1.705 0.921,2.798 C -1.399,-1.978 -0.728,-0.954 0,0"
         id="path336"
         style="fill:#3366b7;fill-opacity:1;fill-rule:nonzero;stroke:none" />
    </g>
    <g
       transform="matrix(0.99286892,0,0,-0.99286892,348.88464,551.28318)"
       id="g338">
      <path
         d="M 0,0 C 0.998,0 1.909,0.11 2.727,0.34 3.544,0.564 4.271,0.851 4.908,1.191 5.546,1.531 6.091,1.895 6.546,2.282 7,2.666 7.34,2.996 7.569,3.272 8.066,2.726 8.578,1.929 9.103,0.884 9.625,-0.163 9.886,-1.047 9.886,-1.774 9.886,-2.229 9.795,-2.672 9.615,-3.105 9.431,-3.536 9.045,-3.979 8.454,-4.434 7.591,-5.07 6.363,-5.661 4.773,-6.207 3.182,-6.752 1.159,-7.025 -1.295,-7.025 c -1.638,0 -3.407,0.229 -5.317,0.683 -1.911,0.454 -3.683,1.319 -5.319,2.592 -1.634,1.269 -2.998,3.033 -4.091,5.281 -1.089,2.252 -1.635,5.194 -1.635,8.83 0,3.453 0.568,6.272 1.705,8.453 1.134,2.185 2.544,3.91 4.226,5.184 1.68,1.272 3.464,2.146 5.351,2.625 1.887,0.475 3.579,0.714 5.08,0.714 1.862,0 3.59,-0.203 5.181,-0.613 1.592,-0.411 2.909,-0.954 3.955,-1.635 0.862,-0.547 1.466,-1.07 1.807,-1.57 0.34,-0.498 0.511,-1.091 0.511,-1.773 0,-0.637 -0.204,-1.421 -0.614,-2.351 C 9.137,18.461 8.613,17.61 7.976,16.837 7.249,17.61 6.183,18.381 4.773,19.155 c -1.409,0.774 -2.977,1.16 -4.704,1.16 -3.002,0 -5.136,-0.92 -6.411,-2.761 -1.27,-1.839 -1.906,-4.194 -1.906,-7.059 0,-1.452 0.136,-2.815 0.407,-4.09 C -7.566,5.134 -7.104,4.02 -6.442,3.065 -5.784,2.111 -4.933,1.361 -3.885,0.817 -2.842,0.271 -1.545,0 0,0"
         id="path340"
         style="fill:#3366b7;fill-opacity:1;fill-rule:nonzero;stroke:none" />
    </g>
    <g
       transform="matrix(0.99286892,0,0,-0.99286892,373.45529,528.27067)"
       id="g342">
      <path
         d="m 0,0 c 0.274,0.41 0.636,0.864 1.092,1.364 0.453,0.5 1.01,0.954 1.669,1.365 0.66,0.407 1.387,0.75 2.182,1.021 0.795,0.273 1.647,0.409 2.557,0.409 0.545,0 1.125,-0.046 1.738,-0.136 0.615,-0.09 1.183,-0.26 1.703,-0.51 0.523,-0.253 0.945,-0.594 1.263,-1.025 0.318,-0.43 0.478,-0.964 0.478,-1.601 0,-1 -0.249,-2.148 -0.75,-3.443 -0.5,-1.297 -0.999,-2.398 -1.5,-3.305 -0.773,0.633 -1.545,1.124 -2.318,1.465 -0.772,0.339 -1.682,0.509 -2.727,0.509 -1.409,0 -2.591,-0.407 -3.545,-1.224 C 0.887,-5.929 0.41,-6.908 0.41,-8.043 l 0,-21.002 -9.272,0 0,32.25 c 0.225,0.044 0.499,0.091 0.817,0.135 0.274,0.046 0.59,0.08 0.956,0.105 0.362,0.021 0.794,0.034 1.294,0.034 1.455,0 2.716,-0.284 3.785,-0.854 C -0.943,2.058 -0.272,1.181 0,0"
         id="path344"
         style="fill:#3366b7;fill-opacity:1;fill-rule:nonzero;stroke:none" />
    </g>
    <g
       transform="matrix(0.99286892,0,0,-0.99286892,408.04661,541.40007)"
       id="g346">
      <path
         d="m 0,0 -0.957,0 c -0.316,0 -0.636,-0.026 -0.953,-0.07 -1.137,-0.093 -2.26,-0.24 -3.374,-0.444 -1.115,-0.204 -2.105,-0.523 -2.967,-0.954 -0.863,-0.43 -1.568,-1.013 -2.113,-1.74 -0.544,-0.725 -0.82,-1.658 -0.82,-2.793 0,-1.274 0.367,-2.353 1.093,-3.239 0.727,-0.885 1.953,-1.328 3.681,-1.328 0.863,0 1.681,0.111 2.455,0.338 0.772,0.229 1.454,0.523 2.045,0.886 0.591,0.365 1.057,0.764 1.399,1.195 C -0.171,-7.719 0,-7.321 0,-6.958 L 0,0 z m 0.682,-12.683 c -1.002,-1.046 -2.296,-1.978 -3.888,-2.796 -1.591,-0.817 -3.681,-1.227 -6.273,-1.227 -1.226,0 -2.453,0.171 -3.681,0.511 -1.226,0.342 -2.34,0.897 -3.339,1.671 -1.001,0.773 -1.818,1.807 -2.455,3.102 -0.638,1.297 -0.954,2.875 -0.954,4.74 0,2.316 0.555,4.201 1.669,5.658 1.114,1.455 2.511,2.599 4.193,3.443 1.681,0.84 3.5,1.421 5.454,1.737 1.955,0.318 3.75,0.522 5.386,0.615 0.546,0.043 1.081,0.066 1.602,0.066 l 1.465,0 0,1.228 c 0,1.728 -0.465,2.956 -1.396,3.682 -0.932,0.728 -2.444,1.091 -4.534,1.091 -1.955,0 -3.694,-0.319 -5.215,-0.954 -1.524,-0.64 -3.012,-1.364 -4.466,-2.184 -0.638,0.774 -1.147,1.624 -1.533,2.558 -0.387,0.93 -0.58,1.625 -0.58,2.081 0,0.591 0.35,1.191 1.055,1.806 0.705,0.613 1.671,1.16 2.898,1.637 1.227,0.477 2.637,0.862 4.227,1.157 1.591,0.297 3.273,0.444 5.046,0.444 2.453,0 4.533,-0.25 6.238,-0.747 C 3.303,16.133 4.69,15.361 5.761,14.314 6.828,13.271 7.589,11.963 8.043,10.395 8.497,8.827 8.727,6.996 8.727,4.907 l 0,-10.501 c 0.044,-1.818 0.283,-3.148 0.713,-3.987 0.431,-0.84 1.308,-1.263 2.625,-1.263 0.228,0 0.467,0.013 0.717,0.036 0.248,0.021 0.511,0.057 0.782,0.1 l 0.413,-4.566 c -0.914,-0.364 -1.833,-0.659 -2.762,-0.887 -0.934,-0.225 -2.035,-0.341 -3.309,-0.341 -1.955,0 -3.489,0.354 -4.603,1.058 -1.114,0.703 -1.987,1.624 -2.621,2.761"
         id="path348"
         style="fill:#3366b7;fill-opacity:1;fill-rule:nonzero;stroke:none" />
    </g>
    <g
       transform="matrix(0.99286892,0,0,-0.99286892,478.12147,551.28318)"
       id="g350">
      <path
         d="m 0,0 c 1,0 1.911,0.11 2.729,0.34 0.817,0.224 1.543,0.511 2.181,0.851 0.637,0.34 1.181,0.704 1.635,1.091 0.456,0.384 0.797,0.714 1.023,0.99 0.5,-0.546 1.011,-1.343 1.535,-2.388 0.523,-1.047 0.784,-1.931 0.784,-2.658 0,-0.455 -0.09,-0.898 -0.274,-1.331 C 9.431,-3.536 9.046,-3.979 8.456,-4.434 7.592,-5.07 6.364,-5.661 4.773,-6.207 3.182,-6.752 1.16,-7.025 -1.295,-7.025 c -1.638,0 -3.409,0.229 -5.317,0.683 -1.909,0.454 -3.683,1.319 -5.318,2.592 -1.634,1.269 -2.999,3.033 -4.09,5.281 -1.093,2.252 -1.637,5.194 -1.637,8.83 0,3.453 0.567,6.272 1.705,8.453 1.137,2.185 2.545,3.91 4.226,5.184 1.681,1.272 3.466,2.146 5.351,2.625 1.885,0.475 3.579,0.714 5.08,0.714 1.864,0 3.59,-0.203 5.181,-0.613 1.592,-0.411 2.909,-0.954 3.956,-1.635 0.861,-0.547 1.465,-1.07 1.805,-1.57 0.34,-0.498 0.51,-1.091 0.51,-1.773 0,-0.637 -0.203,-1.421 -0.61,-2.351 -0.41,-0.934 -0.934,-1.785 -1.571,-2.558 -0.725,0.773 -1.795,1.544 -3.203,2.318 -1.411,0.774 -2.976,1.16 -4.704,1.16 -3.002,0 -5.136,-0.92 -6.408,-2.761 C -7.613,15.715 -8.25,13.36 -8.25,10.495 -8.25,9.043 -8.113,7.68 -7.84,6.405 -7.566,5.134 -7.103,4.02 -6.442,3.065 -5.784,2.111 -4.931,1.361 -3.887,0.817 -2.842,0.271 -1.545,0 0,0"
         id="path352"
         style="fill:#3366b7;fill-opacity:1;fill-rule:nonzero;stroke:none" />
    </g>
    <g
       transform="matrix(0.99286892,0,0,-0.99286892,513.99756,538.42235)"
       id="g354">
      <path
         d="m 0,0 c 0,0.998 -0.033,1.929 -0.104,2.795 -0.066,0.861 -0.25,1.601 -0.543,2.216 -0.297,0.613 -0.774,1.091 -1.431,1.43 -0.66,0.341 -1.581,0.511 -2.763,0.511 -1.68,0 -3.125,-0.35 -4.327,-1.057 -1.206,-0.705 -1.808,-1.579 -1.808,-2.623 l 0,-22.092 -9.273,0 0,48.066 c 0,0.046 0.344,0.103 1.024,0.17 0.681,0.069 1.387,0.105 2.115,0.105 0.727,0 1.452,-0.069 2.178,-0.206 0.728,-0.136 1.388,-0.399 1.979,-0.784 0.591,-0.389 1.067,-0.93 1.431,-1.637 0.364,-0.705 0.546,-1.624 0.546,-2.762 l 0,-13.567 c 0.365,0.41 0.818,0.84 1.365,1.297 0.544,0.454 1.204,0.874 1.975,1.261 0.774,0.387 1.671,0.693 2.693,0.921 1.023,0.227 2.194,0.34 3.511,0.34 3.227,0 5.615,-0.637 7.16,-1.908 C 7.272,11.202 8.272,9.521 8.727,7.43 8.953,6.385 9.104,5.248 9.17,4.021 9.239,2.795 9.273,1.588 9.273,0.407 l 0,-19.268 L 0,-20.141 0,0 z"
         id="path356"
         style="fill:#3366b7;fill-opacity:1;fill-rule:nonzero;stroke:none" />
    </g>
  </g>
</svg>
